# xmcd
#
# Track frame offsets: 
#        183
#        26410
#        57280
#        88388
#        110220
#        129285
#        155738
#        175675
#
# Disc length: 3003 seconds
#
# Revision: 4
# Processed by: cddbd v1.5.2PL0 Copyright (c) Steve Scherf et al.
# Submitted via: ExactAudioCopyFreeDBPlugin 1.0
#
DISCID=680bb908
DTITLE=John Mayall - British Blues
DYEAR=1987
DGENRE=Blues
TTITLE0=Ridin' On The L&N
TTITLE1=Help Me
TTITLE2=Racehorse Man
TTITLE3=All Your Love
TTITLE4=I Ain't Got You
TTITLE5=Wild About You
TTITLE6=It Ain't Right
TTITLE7=Room To Move
EXTD=YEAR: 1987 ID3G: 0
EXTT0=
EXTT1=
EXTT2=
EXTT3=
EXTT4=
EXTT5=
EXTT6=
EXTT7=
PLAYORDER=
